<svg xmlns="http://www.w3.org/2000/svg" viewBox="74.5 40.7 40 40">
  <rect x="74.5" y="40.7" width="40" height="40" fill="#FFFFFF" />
  <path fill="#c01f32" d="m 83.622972,71.880751 v -3.43958 h 1.955064 c 1.530723,0 2.090636,0.10978 2.579687,0.50579 0.520723,0.42166 0.624625,0.75017 0.624625,1.97493 0,1.02145 -0.163192,1.519855 -0.471383,1.828045 -0.247814,0.24781 -0.910647,0.545959 -1.73605,0.543681 -0.833525,-0.0023 -1.474002,-0.08844 -1.488654,0.455642 -0.03547,1.317257 -0.03205,-0.671549 -0.0099,0.701976 -0.03412,1.04965 0.132489,0.869106 -0.66464,0.869106 l -0.788749,0.0056 z m 3.388651,-0.932998 c 4e-5,-0.999175 -0.158089,-1.10303 -0.786251,-1.132902 -0.495392,-0.02356 -0.748396,0.0607 -0.851266,0.39688 -0.08051,0.26312 -0.03621,0.71652 -0.04296,1.00757 -0.0069,0.296467 0.358868,0.489448 0.303619,0.459593 -0.128256,-0.06931 0.399554,0.154567 0.750475,0.07881 0.429145,-0.09267 0.626357,-0.166992 0.626378,-0.686164 z m 2.696766,0.932998 v -3.43958 h 1.996402 c 1.766858,0 2.077769,0.07791 2.645833,0.64943 0.475582,0.478472 0.616766,0.878693 0.593195,1.708873 -0.01826,0.643151 -0.08815,0.972105 -0.470711,1.354276 -0.533498,0.53295 -1.194085,0.455654 -0.229065,1.85567 1.012462,1.468842 0.914655,1.340292 0.658284,1.337094 -0.362642,-0.0045 -0.366842,0.005 -0.613017,-3.41e-4 -0.962063,-0.02086 -0.47894,0.174835 -1.273628,-1.084188 -0.398622,-0.631536 -0.606688,-1.068023 -0.921236,-1.103319 -0.742293,-0.08329 -0.889196,0.169067 -0.915217,0.411072 -0.03117,0.289937 -0.0094,0.806851 -0.0074,0.956837 0.01504,1.155659 0.02083,0.03811 0.01022,0.52916 -0.0075,0.347506 0.142059,0.26459 -0.679808,0.26459 h -0.79375 z m 3.543332,-0.4179 c 0.0882,-0.22984 0.08803,-0.70609 -3.76e-4,-1.05833 -0.123687,-0.49281 -0.337091,-0.64043 -0.925805,-0.64043 -0.71619,0 -0.765067,0.0676 -0.765067,1.05833 0,0.99084 0.04881,1.05833 0.765442,1.05833 0.453433,0 0.83081,-0.17034 0.925806,-0.4179 z m 3.071252,0.4179 v -3.43958 h 0.79375 0.79375 v 3.43958 3.43959 h -0.79375 -0.79375 z m 3.265052,0.0661 0.04224,-3.37343 1.032335,0.02234 c 0.72578,-0.01918 0.68763,0.04562 1.74579,1.756643 l 1.28606,1.9252 -0.0177,-1.91823 -0.0336,-1.91822 h 0.8935 0.78216 v 3.43958 3.43958 l -0.85989,-0.005 c -1.00114,-0.004 -0.34436,0.323805 -1.91823,-1.78485 l -1.32874,-1.78024 0.001,1.78486 0.0172,1.78486 h -0.82642 -0.794606 z m -14.244055,-6.67949 -1.043681,-1.06883 3.923135,-3.92969 3.923134,-3.929682 -3.864918,-3.881244 c -2.125704,-2.134684 -4.075769,-4.079384 -3.971768,-4.261738 0.04201,-0.07365 0.556408,-0.459561 1.105868,-0.996094 l 0.999018,-0.975515 5.018518,5.023736 5.018517,5.023737 -5.032071,5.03207 -5.032071,5.03207 z m 13.624836,-2.40805 c -1.819011,-1.88663 -3.442408,-3.64169 -3.528407,-3.719939 -0.07747,-0.07048 0.533771,-0.550341 1.085248,-1.088841 l 1.002685,-0.97909 3.556398,3.56373 3.5564,3.56373 -1.03778,1.06278 c -0.57077,0.58452 -1.09727,1.105533 -1.18251,1.04532 -0.0796,-0.04937 -1.63302,-1.56106 -3.452034,-3.44769 z m -2.519076,-8.711357 -1.038969,-1.064001 3.497493,-3.497492 3.497496,-3.497493 1.12194,1.121947 1.12195,1.121946 -3.43191,3.439547 c -1.887554,1.89175 -3.498765,3.439546 -3.580473,3.439546 -0.08171,0 -0.616094,-0.4788 -1.187527,-1.064 z" />
</svg>
